<svg version="1.1" id="Layer_1" xmlns="http://www.w3.org/2000/svg" xmlns:xlink="http://www.w3.org/1999/xlink" x="0px" y="0px"
	 width="100%" viewBox="0 0 432 416" enable-background="new 0 0 432 416" xml:space="preserve">
	 <defs>
	 	<linearGradient id="gradient">
			<stop offset="0%" stop-color="#098697"/>
			<stop offset="100%" stop-color="#21B4C8"/>
		</linearGradient>
	 </defs>
	
<path fill="url(#gradient)" opacity="1.000000" stroke="none" 
	d="
M83.599319,230.685333 
	C101.576126,201.295547 127.570404,184.341263 161.278961,181.006622 
	C215.109665,175.681381 261.476746,212.701096 270.400726,263.334290 
	C276.514313,298.021973 267.270813,328.391693 242.473999,352.955383 
	C214.519180,380.647308 180.281631,389.259460 142.584335,378.297058 
	C104.083076,367.100922 80.362152,340.391388 72.188210,301.357422 
	C67.084824,276.986603 70.189209,252.941818 83.599319,230.685333 
M139.660309,207.026367 
	C135.797516,213.277420 130.845139,217.754898 123.314751,217.219879 
	C119.067085,224.724747 116.057686,232.577881 110.428322,238.929337 
	C109.222923,240.289337 107.951347,239.804153 106.877014,239.025253 
	C105.330887,237.904282 104.709496,235.945953 106.229424,234.782059 
	C108.691559,232.896652 107.351364,231.776886 106.122993,230.227142 
	C105.295540,232.812378 103.543800,236.255264 101.870087,235.808884 
	C97.583267,234.665573 97.132736,237.726715 95.914597,239.881531 
	C88.371040,253.225693 85.045479,267.574432 85.211655,282.928833 
	C85.639206,322.434204 113.654602,357.125946 152.284073,365.547089 
	C156.724747,366.515137 161.206528,367.276520 165.866943,366.821869 
	C165.565109,364.294739 162.625336,362.461395 164.958588,360.081116 
	C167.231812,357.762054 166.149628,355.740662 164.960495,353.348541 
	C163.117844,349.641693 159.374237,347.122528 158.655273,342.731812 
	C157.486938,335.596924 148.466660,330.269257 141.257614,332.352295 
	C134.814743,334.213959 126.824631,330.775970 123.146233,324.993500 
	C119.421890,319.138794 115.566345,313.491608 119.575951,306.203735 
	C119.935822,305.549622 119.761040,304.559662 119.716270,303.732056 
	C119.546112,300.586365 120.924820,298.374878 123.522324,296.659637 
	C129.287079,292.852875 134.396347,288.260162 139.306183,283.141937 
	C138.765701,282.278961 138.228516,281.461029 137.730789,280.619751 
	C135.263596,276.449677 138.671661,270.000641 143.508423,269.674744 
	C149.196793,269.291412 149.183823,269.298615 146.419128,264.320343 
	C146.216080,263.954681 146.392517,263.378265 146.392517,262.457611 
	C151.685150,262.970337 155.779007,260.494568 159.686127,257.399384 
	C162.489868,255.178299 163.806793,253.008423 161.778229,249.378677 
	C160.035370,246.260086 160.995926,243.272644 163.829636,240.951370 
	C165.109100,239.903290 166.423431,238.820816 167.426620,237.525253 
	C172.941711,230.402786 176.131042,229.264801 184.553024,231.999741 
	C186.270340,232.557449 187.726715,234.053406 189.335693,231.909225 
	C190.930023,229.784576 190.242172,228.181870 188.815109,226.141068 
	C186.322891,222.577103 186.657425,219.988205 189.158157,217.857956 
	C193.715149,226.695923 193.715149,226.695923 196.859070,225.305710 
	C196.557831,223.335968 193.344772,222.213165 195.268799,219.428360 
	C196.415466,218.519211 198.327332,221.290421 199.632690,218.679169 
	C197.820206,216.087631 194.166718,215.244278 193.295288,211.207748 
	C192.413422,207.122818 192.120300,204.589600 196.794724,204.072296 
	C196.786346,201.239395 196.624496,199.140045 193.574188,198.321365 
	C180.653641,194.853577 167.686829,194.211533 154.588394,197.134979 
	C152.566940,197.586151 150.792236,198.235489 150.603363,200.916489 
	C154.451065,202.812866 158.633896,203.329117 162.048019,206.414902 
	C164.833771,208.932709 163.966888,211.810883 162.704071,212.417892 
	C158.321045,214.524689 156.768234,218.634949 153.937622,221.892532 
	C148.023346,228.698914 139.037537,228.597565 130.767670,229.392471 
	C128.228439,229.636536 126.820236,227.570068 128.420349,225.441681 
	C131.783844,220.967773 135.892181,217.211899 140.992493,214.606888 
	C143.778824,213.183746 147.076172,211.428665 146.269180,207.662933 
	C145.375397,203.492233 142.359772,206.401947 139.660309,207.026367 
M219.887024,352.396301 
	C246.136703,333.370911 258.469727,307.738068 256.833740,273.943573 
	C255.019836,281.046631 257.562225,287.782471 252.774231,292.880524 
	C249.788635,291.627563 249.198593,289.144196 247.797684,287.365936 
	C246.027634,285.119080 238.962601,282.956512 236.938904,284.616425 
	C233.553055,287.393616 229.852997,288.160736 225.611115,288.745972 
	C222.797745,289.134125 220.284439,287.259857 217.553146,288.286102 
	C220.076645,294.743256 220.823761,294.805359 227.890335,289.259460 
	C229.306091,291.135468 232.375381,292.123688 231.598816,295.167877 
	C229.463150,303.539825 224.546585,310.119446 217.750504,315.329132 
	C216.458755,316.319336 214.674255,316.802307 214.047272,314.805634 
	C211.829742,307.743988 204.739685,304.817261 200.978958,299.079712 
	C200.289307,298.027557 199.422363,296.674255 197.429321,296.318878 
	C198.385757,298.506805 198.999313,300.420746 200.014679,302.090332 
	C201.040558,303.777191 202.653290,305.106598 203.683350,306.791595 
	C209.941940,317.029541 212.910538,318.299438 223.805405,315.193115 
	C224.041016,315.125885 224.377945,315.414032 225.195648,315.759552 
	C223.234894,323.440002 220.876541,331.028717 215.181702,336.886597 
	C209.615585,342.612091 207.333755,348.512024 211.968842,355.779388 
	C212.121170,356.018250 212.465286,356.134796 213.016678,356.510498 
	C215.025635,355.312775 217.152115,354.044983 219.887024,352.396301 
M168.869370,291.306641 
	C171.452820,291.451721 173.858292,294.914154 176.589539,291.857727 
	C178.639969,289.563202 180.967010,289.913330 183.428680,290.779724 
	C186.835297,291.978760 190.250656,292.132172 193.714462,291.022034 
	C195.203262,290.544922 196.613693,290.047791 196.549652,288.100403 
	C196.487976,286.225372 195.839508,285.054688 193.672134,284.793671 
	C191.718887,284.558472 189.834656,283.762512 187.915161,283.231293 
	C186.199554,282.756500 184.808578,281.926025 184.613297,279.968475 
	C184.421326,278.043793 186.029907,277.471436 187.298141,276.774689 
	C191.011032,274.735046 194.770920,272.781036 198.762802,270.660431 
	C194.478882,267.800964 188.407593,268.268066 187.790543,271.571747 
	C186.765656,277.058960 180.564148,278.779663 180.525345,284.445587 
	C174.705673,281.553894 174.625717,274.470612 168.256622,272.062164 
	C170.496765,275.907074 174.455719,278.723541 171.358734,283.660431 
	C167.489014,279.703552 164.552902,274.106873 159.298645,273.758057 
	C153.303970,273.360077 151.280075,280.237976 147.033615,283.656647 
	C150.800262,283.830933 154.328873,282.283844 158.007141,282.977295 
	C159.885635,283.331451 161.859436,283.516388 162.004547,285.892334 
	C162.248474,289.885864 164.997009,290.637573 168.869370,291.306641 
M171.510864,250.701920 
	C171.510864,251.946518 171.510864,253.191116 171.510864,254.988297 
	C174.351654,252.803268 175.938904,250.256119 177.715637,247.885498 
	C176.754791,246.123306 175.555115,245.243484 173.820740,245.279739 
	C172.216293,246.575043 171.362717,248.090820 171.510864,250.701920 
M125.900726,208.534622 
	C124.390526,209.777069 122.389488,210.423676 121.269173,212.269211 
	C123.740158,214.566208 125.465820,211.328552 127.681038,211.508865 
	C129.635651,211.667969 131.044067,209.917328 130.454803,208.231979 
	C129.515335,205.544998 127.841934,207.669037 125.900726,208.534622 
z"/>
<path fill="url(#gradient)" opacity="1.000000" stroke="none" 
	d="
M367.909729,163.584991 
	C365.509979,153.599442 367.035614,144.045334 367.730927,134.423126 
	C368.174408,128.285660 364.833069,122.172279 369.171967,115.861115 
	C370.565002,113.834808 367.852570,109.293877 365.981079,106.266983 
	C365.081085,104.811371 363.912811,104.273125 362.192657,104.651642 
	C357.162567,105.758530 352.084473,106.659363 347.081268,107.872414 
	C342.629089,108.951874 339.461487,116.781578 340.924103,122.754662 
	C345.191437,140.181793 342.445160,156.379227 330.910980,170.197891 
	C316.970245,186.899765 298.576630,193.071640 277.555084,187.953201 
	C256.476807,182.820953 243.077820,168.908966 238.718918,147.432541 
	C234.677429,127.519913 240.925095,110.663071 255.762527,96.935265 
	C260.693726,92.372833 260.642059,89.710045 255.293243,86.134521 
	C246.013519,79.931320 236.741318,73.716331 227.417969,67.579185 
	C224.635513,65.747620 222.267609,63.835888 222.914459,60.009789 
	C223.548248,56.261017 226.176910,54.925552 229.519775,54.221375 
	C255.533569,48.741539 281.544739,43.248756 307.540588,37.684662 
	C311.558289,36.824718 314.923676,37.633732 318.355469,39.923622 
	C341.361755,55.274712 364.427612,70.537476 387.568176,85.685272 
	C390.987305,87.923447 393.048798,90.342461 392.251862,94.608566 
	C391.501587,98.625099 388.328796,98.907852 385.202972,99.732788 
	C381.421234,100.730820 377.285278,100.666603 373.452179,103.240356 
	C376.339294,108.884743 375.658569,115.620697 379.975311,120.791451 
	C381.616394,122.757217 381.831390,125.436890 380.424744,127.874092 
	C375.148102,137.016785 379.135437,145.007599 383.534973,152.934402 
	C383.929047,153.644379 384.657532,154.161057 385.175934,154.811157 
	C386.644104,156.652344 386.643982,158.527328 384.960327,160.180649 
	C383.335114,161.776535 381.661713,161.199493 380.015564,160.018066 
	C377.788727,158.419891 376.545959,156.017639 374.909698,153.869583 
	C373.612030,159.508179 373.977692,161.063339 377.990021,164.482040 
	C379.721802,165.957611 380.765137,167.383759 379.477966,169.576721 
	C378.175537,171.795654 376.142029,171.544983 374.196381,170.820282 
	C370.996765,169.628525 369.262299,167.001358 367.909729,163.584991 
M310.824097,75.313332 
	C312.401245,74.533447 313.404175,73.378479 311.745667,71.953758 
	C309.604919,70.114815 307.179138,69.533058 304.574524,71.724098 
	C305.356598,74.785667 307.551025,75.442474 310.824097,75.313332 
z"/>
<path fill="url(#gradient)" opacity="1.000000" stroke="none" 
	d="
M278.298889,316.321442 
	C290.410919,276.042847 282.312317,240.098358 256.448761,207.527359 
	C265.960449,201.883850 275.858917,199.188568 286.218811,198.858170 
	C317.509003,197.860245 340.205994,213.007278 357.068726,238.036285 
	C370.081085,257.350311 375.394348,279.191650 376.080414,302.227234 
	C376.253723,308.046265 375.278656,313.901031 372.911804,319.303284 
	C367.491119,331.675751 358.358826,338.959625 344.424316,339.010742 
	C320.762268,339.097565 297.099731,339.055573 273.437378,339.054321 
	C272.124725,339.054260 270.769501,339.118683 268.918701,337.741211 
	C272.382751,330.988617 275.982819,324.123535 278.298889,316.321442 
z"/>
</svg>